<mxfile host="app.diagrams.net" modified="2024-04-29T15:38:41.275Z" agent="Mozilla/5.0 (Windows NT 10.0; Win64; x64) AppleWebKit/537.36 (KHTML, like Gecko) Chrome/124.0.0.0 Safari/537.36" etag="4O57YBJV0kGCkbxzXbwZ" version="24.2.8" type="gitlab">
  <diagram name="PÃ¡gina-1" id="A9YsAqewT_fJsP3N-sSb">
    <mxGraphModel dx="1434" dy="772" grid="0" gridSize="10" guides="1" tooltips="1" connect="1" arrows="1" fold="1" page="0" pageScale="1" pageWidth="850" pageHeight="1100" math="0" shadow="0">
      <root>
        <mxCell id="0" />
        <mxCell id="1" parent="0" />
      </root>
    </mxGraphModel>
  </diagram>
</mxfile>
